# xmcd
# 
# Track frame offsets:
#     150
#     14055
#     23770
#     39138
#     63150
#     79973
#     92583
#     109458
#     118290
#     124495
#     133630
#     148860
#     165950
#     174650
#     194325
#     198840
#     209900
#     220043
#     231225
#     237540
#     247250
#     258315
#     268235
# 
# Disc length: 3781
# 
# Revision: 24
# Processed by: cddbd v1.5.2PL0 Copyright (c) Steve Scherf et al.
# Submitted via: fre:ac v1.0.31
# 
DISCID=640ec317
DTITLE=Christmas - The Chieftans The Bells of Dublin
DYEAR=1991
DGENRE=Christmas
TTITLE0=The Bells of Dublin/Christmas Eve
TTITLE1=Past Three O'Clock
TTITLE2=St. Stephen's Day Murders
TTITLE3=Il Est Né/Ca Berger
TTITLE4=Don Oiche Ud I mBeithil
TTITLE5=I Saw Three Ships A Sailing
TTITLE6=A Breton Carol
TTITLE7=Carol Medley: 1. O The Holly She Bears A Berry
TTITLE8=Carol Medley: 2. God Rest Ye Merry Gentlemen
TTITLE9=Carol Medley: 3. The Boar's Head
TTITLE10=The Wexford Carol
TTITLE11=The Rebel Jesus
TTITLE12=Skyline Jig
TTITLE13=O Holy Night
TTITLE14=Medley: "The Wren! The Wren!" 1. The Arrival of the Wren Boys
TTITLE15=Medley: "The Wren! The Wren!" 2. The Dingle Set - Dance
TTITLE16=Medley: "The Wren! The Wren!" 3. The Wren in the Furze
TTITLE17=Medley: "The Wren! The Wren!" 4. A Dance Duet - Reels
TTITLE18=Medley: "The Wren! The Wren!" 5. Brafferton Village/Walsh's Hornpipe
TTITLE19=Medley: "The Wren! The Wren!" 6. The Farewell - The Piper Through The Meadow Strayed/This Is The Season To Be Merry
TTITLE20=Medley: 1. Once in Royal David's City
TTITLE21=Medley: 2. Ding Dong! Merrily On High
TTITLE22=Medley: 3. O Come All Ye Faithful
EXTD=
EXTT0=
EXTT1=
EXTT2=
EXTT3=
EXTT4=
EXTT5=
EXTT6=
EXTT7=
EXTT8=
EXTT9=
EXTT10=
EXTT11=
EXTT12=
EXTT13=
EXTT14=
EXTT15=
EXTT16=
EXTT17=
EXTT18=
EXTT19=
EXTT20=
EXTT21=
EXTT22=
PLAYORDER=
